<?xml version="1.0" encoding="UTF-8"?>
<svg id="Layer_1" data-name="Layer 1" xmlns="http://www.w3.org/2000/svg" viewBox="0 0 144.22 123.02">
  <defs>
    <style>
      .cls-1 {
        fill: #837d72;
        stroke: #1c1714;
        stroke-miterlimit: 10;
        stroke-width: .75px;
      }
    </style>
  </defs>
  <path class="cls-1" d="M6.39,53.07l-.08-34.19c-.02-7.46-5.33-9.14-5.33-9.14L17.12,1.5s.1,44.37.31,52.06c.21,7.71,5.53,8.91,5.53,8.91l-22.25.05c6.36-.01,5.68-9.45,5.68-9.45Z"/>
  <path class="cls-1" d="M37.07,52.67l-.08-32.23c-.04-19.04-17.16-9.85-17.16-9.85,0,0,3.73-9.16,15.54-10.16,11.82-.98,11.84,11.3,11.84,11.3,0,0,.48,35.43.5,41.94.02,6.51,5.13,8.42,5.13,8.42l-21.86.05c6.16-.01,6.08-9.47,6.08-9.47Z"/>
  <path class="cls-1" d="M96.84,112.92l-.08-32.23c-.04-19.04-17.16-9.85-17.16-9.85,0,0,3.73-9.16,15.54-10.16,11.82-.98,11.84,11.3,11.84,11.3,0,0,.48,35.43.49,41.94.02,6.51,5.14,8.42,5.14,8.42l-21.87.05c6.17-.01,6.09-9.47,6.09-9.47Z"/>
  <path class="cls-1" d="M126.38,113.17l-.08-32.24c-.04-19.03-17.16-9.83-17.16-9.83,0,0,3.73-9.16,15.54-10.16,11.82-1,11.84,11.3,11.84,11.3,0,0,.48,35.43.5,41.94.02,6.51,5.13,8.42,5.13,8.42l-21.86.05c6.16-.01,6.08-9.47,6.08-9.47Z"/>
  <path class="cls-1" d="M67.59,110.31l-.21-88.55c-.04-19.03-17.18-9.83-17.18-9.83,0,0,3.73-9.16,15.54-10.16,11.82-1,11.84,11.3,11.84,11.3,0,0,.48,35.43.5,41.94,0,0-.37,42.98-.34,54.55.03,11.55,5.51,13.03,5.51,13.03l-21.02.05c6.1-.01,5.35-12.31,5.35-12.31Z"/>
</svg>